<?xml version="1.0"?>
<svg width="920" height="920" viewBox="-30 -20 950 930" version="1.1" xml:space="preserve" style="clip-rule:evenodd;fill-rule:evenodd;stroke-linejoin:round;stroke-miterlimit:2" id="svg79" xmlns:inkscape="http://www.inkscape.org/namespaces/inkscape" xmlns:sodipodi="http://sodipodi.sourceforge.net/DTD/sodipodi-0.dtd" xmlns="http://www.w3.org/2000/svg" xmlns:svg="http://www.w3.org/2000/svg" xmlns:serif="http://www.serif.com/"><namedview id="namedview79" pagecolor="#ffffff" bordercolor="#000000" borderopacity="0.25"><page x="0" y="0" width="765625" height="765625" id="page2" margin="0" bleed="0"></page></namedview>
    
    <g transform="matrix(2.1050903,0,0,2.0898751,-504.57766,-266.98543)" id="g75">
        <g id="scramvm-is-a-sql-query-engine-written-in-rust-that--8-.svg" transform="matrix(0.399068,0,0,0.399068,445.53,336.78)">
            <g transform="translate(-512,-512)" id="g73">
                <path d="m 232.68,22.8 c 1.905,1.918 2.87,8.562 3.76,11.443 4.473,14.475 11.352,26.714 21.364,38.028 30.326,34.268 75.261,54.211 119.596,62.471 21.25,3.96 42.476,5.478 64.009,6.85 -19.478,-13.969 -38.264,-30.254 -52.03,-50.071 -12.748,-18.352 -21.931,-43.351 -17.831,-65.896 18.144,35.485 44.019,58.508 79.954,75.067 7.891,3.636 16.064,6.447 24.158,9.577 10.491,4.057 20.848,8.38 31.506,11.998 -3.256,-3.124 -15.771,-9.896 -16.844,-12.25 l 0.947,-0.449 c 6.316,0.198 12.476,2.141 18.525,3.81 25.518,7.038 51.015,16.933 73.869,30.391 12.315,7.252 23.678,16.352 36.129,23.258 l 0.761,0.418 c -6.421,-22.807 -24.439,-42.805 -40.552,-59.51 31.213,12.293 61.399,38.313 83.107,63.585 6.016,7.003 13.083,19.072 19.493,24.71 2.236,1.966 6.093,2.992 8.854,4.072 7.915,3.097 16.854,6.947 22.642,13.427 6.514,7.293 7.897,14.89 7.339,24.415 22.208,8.038 50.098,14.592 73.285,19.383 0.873,-5.176 3.272,-10.002 3.966,-15.242 1.246,-9.406 -4.854,-16.386 -10.176,-23.324 16.065,6.332 28.476,22.554 36.386,37.32 15.386,28.719 21.345,62.751 11.495,94.212 -2.366,7.556 -8.281,25.376 -15.183,28.959 -2.54,-1.085 -3.991,-7.341 -4.969,-9.983 -3.291,-8.892 -9.402,-16.796 -15.197,-24.217 -5.621,3.266 -11.497,7.032 -17.523,9.475 -1.694,0.687 -3.146,1.296 -4.888,0.569 -0.037,-1.651 2.102,-3.814 3.093,-5.222 3.232,-4.594 5.64,-9.267 7.857,-14.414 -7.319,-5.734 -14.352,-9.652 -22.874,-13.242 -6.68,5.098 -35.748,23.051 -42.564,22.935 l -0.535,-0.628 c 0.76,-2.455 3.861,-4.808 5.351,-7.016 4.676,-6.926 8.935,-14.394 11.429,-22.4 -7.182,-1.25 -15.717,-4.057 -22.935,-3.874 -6.569,0.167 -30.442,10.95 -36.039,14.748 -9.889,6.71 -11.894,17.593 -13.943,28.495 4.73,4.994 9.511,10.082 14.543,14.771 16.183,15.083 34.019,20.134 55.671,20.162 3.653,0.005 7.251,-0.918 10.785,-0.894 1.127,0.008 1.238,-0.069 2.023,0.785 -1.668,3.005 -10.645,5.553 -13.864,6.621 -21.951,7.283 -43.002,4.9 -63.463,-5.431 -1.071,7.49 0.112,14.837 1.05,22.273 3.251,-1.458 8.166,-3.794 11.736,-3.443 1.083,0.107 1.088,0.13 1.789,1.015 -1.358,3.42 -8.115,9.666 -10.727,14.954 1.504,7.996 5.225,16.45 8.379,23.949 2.742,-1.845 6.87,-5.545 10.13,-6.025 1.027,-0.151 1.204,0.009 1.997,0.57 -1.402,4.325 -6.977,9.548 -7.154,13.9 -0.21,5.182 6.036,12.102 9.509,15.571 3.88,3.877 5.773,4.969 11.166,5.012 1.899,0.016 3.202,0.268 4.561,1.644 -0.273,1.126 -0.568,1.531 -1.499,2.244 -3.982,3.048 -10.102,4.974 -14.802,6.811 -22.164,8.666 -41.751,13.285 -65.794,10.403 3.553,-4.109 7.714,-8.596 8.79,-14.105 1.408,-7.206 -4.14,-17.115 -7.945,-22.982 -11.423,-17.612 -35.328,-36.836 -52.705,-48.734 -6.246,-4.276 -12.805,-8.026 -19.165,-12.119 -12.62,-8.122 -29.634,-19.585 -44.517,-22.569 -8.673,-1.739 -17.575,0.532 -24.861,5.392 -0.838,0.563 -1.662,1.147 -2.471,1.752 -0.809,0.605 -1.603,1.229 -2.382,1.872 -0.779,0.644 -1.541,1.307 -2.286,1.988 -0.746,0.681 -1.474,1.381 -2.185,2.098 -0.711,0.718 -1.403,1.453 -2.078,2.205 -0.675,0.752 -1.33,1.52 -1.966,2.304 -0.637,0.785 -1.253,1.584 -1.85,2.399 -0.597,0.815 -1.174,1.645 -1.729,2.488 -0.556,0.843 -1.091,1.7 -1.604,2.57 -0.513,0.87 -1.005,1.752 -1.474,2.646 -0.469,0.895 -0.916,1.8 -1.341,2.717 -0.425,0.916 -0.827,1.842 -1.206,2.779 -0.379,0.937 -0.734,1.882 -1.066,2.836 -0.332,0.954 -0.64,1.916 -0.924,2.885 -0.285,0.969 -0.545,1.945 -0.781,2.927 -0.235,0.982 -0.447,1.969 -0.634,2.962 -2.091,10.935 -2.922,21.595 -0.237,32.505 8.726,35.452 39.178,63.787 64.91,87.817 11.362,10.756 22.914,21.304 34.656,31.644 12.038,10.463 24.469,20.486 36.123,31.384 27.076,25.323 51.186,52.058 71.925,82.882 26.081,41.255 41.411,85.878 42.809,134.921 1.398,49.037 -10.897,98.933 -31.93,143.049 -5.377,11.278 -11.877,24.202 -20.463,33.317 -4.637,-2.495 -9.049,-5.307 -13.785,-7.646 C 573.45,955.395 487.429,942.532 404.44,920.588 390.87,917 377.124,912.949 363.845,908.399 c -9.652,-3.307 -19.185,-8.031 -29.314,-9.657 -11.752,-1.886 -23.961,-0.709 -35.554,1.63 3.41,-5.954 8.166,-11.536 12.054,-17.234 13.407,-19.648 22.575,-40.401 24.92,-64.339 1.653,-16.875 -1.07,-35.708 -6.503,-51.694 -1.156,-3.401 -2.305,-7.498 -4.725,-10.237 -1.511,-1.711 -3.914,-2.513 -6.145,-2.65 -3.749,-0.23 -7.144,1.717 -9.882,4.107 -16.019,13.985 -26.316,53.344 -27.561,74.623 -5.613,-15.803 -15.61,-56.923 -28.064,-66.491 -2.122,-1.63 -4.674,-2.758 -7.396,-2.366 -3.61,0.52 -6.278,3.484 -8.335,6.263 -24.076,32.516 -29.258,101.682 -23.364,140.625 -2.956,-4.049 -5.333,-8.764 -7.601,-13.234 -20.916,-41.203 -24.049,-91.859 -32.423,-136.744 -3.63,-19.458 -9.525,-55.003 -26.974,-66.499 -7.458,-4.914 -16.139,-5.57 -24.689,-3.837 -21.377,4.333 -43.204,24.771 -55.033,42.717 0.501,-11.544 3.921,-23.764 6.518,-34.981 3.897,-16.833 8.191,-33.939 13.367,-50.427 5.414,-17.245 11.069,-34.386 16.228,-51.715 5.682,-19.087 11.116,-37.948 11.756,-58.003 0.373,-11.655 -1.558,-26.239 -10.067,-35.029 -4.835,-4.995 -11.726,-7.374 -18.595,-7.324 -18.309,0.135 -32.353,11.997 -44.424,24.382 17.386,-42.752 51.433,-82.202 80.719,-117.527 11.104,-13.393 31.875,-35.359 37.807,-51.177 1.952,-5.204 3.238,-11.545 0.711,-16.759 -2.264,-4.673 -6.964,-7.546 -11.783,-9.021 -4.496,-1.377 -9.272,-1.542 -13.939,-1.379 -17.392,0.608 -31.084,8.223 -46.104,16.045 10.187,-12.588 24.027,-22.388 37.327,-31.457 10.136,-6.91 20.345,-13.861 30.946,-20.04 27.066,-15.777 55.698,-28.749 83.646,-42.857 17.785,-8.978 39.526,-18.425 53.59,-32.924 2.621,-2.702 7.377,-8.148 6.898,-12.088 -0.299,-2.461 -1.969,-4.244 -3.831,-5.742 -3.362,-2.706 -7.621,-4.703 -11.688,-6.096 -14.366,-4.919 -26.66,-1.743 -41.119,-0.007 0.665,-0.45 1.315,-0.873 2.012,-1.273 18.057,-10.363 51.107,-15.62 71.52,-10.233 -7.888,-6.527 -16.397,-12.355 -24.084,-19.106 C 273.913,140.415 253.982,116.727 242.251,91.66 232.739,71.334 224.68,44.876 232.68,22.8 Z" style="fill:#02084e;fill-rule:nonzero" id="path1"></path>
                <path d="m 477.646,148.608 c 18.013,1.669 35.314,10.097 52.73,14.831 13.604,3.698 27.586,5.637 41.291,8.9 33.046,7.868 81.678,24.789 105.666,49.19 6.169,6.275 13.753,17.235 13.389,26.418 -0.081,2.026 -0.496,3.318 -2.031,4.698 -10.335,4.226 -43.53,-23.656 -52.807,-29.546 -7.015,-4.454 -14.852,-7.988 -22.574,-11.06 -25.788,-10.258 -59.148,-14.96 -85.339,-3.715 31.214,-2.326 58.907,-0.255 88.143,12.239 6.446,2.755 13.562,5.749 19.067,10.101 -3.852,-1.575 -7.745,-3.095 -11.719,-4.334 -15.58,-4.858 -48.053,-7.873 -63.062,0.089 10.131,0.016 20.17,0.458 30.188,2.058 -0.294,6.916 1.626,13.135 6.424,18.248 15.064,16.049 41.829,8.82 61.103,9.372 8.234,0.236 16.287,2.836 24.425,2.876 4.123,0.02 8.769,-1.046 11.753,-4.072 4.453,-4.515 5.265,-11.313 5.238,-17.336 23.212,12.301 67.716,22.396 94.203,25.744 -3.753,15.205 -10.604,10.714 -14.749,16.289 -0.099,1.964 0.602,2.988 1.877,4.445 3.241,3.704 16.022,15.873 20.443,15.819 0.749,-0.009 0.899,-0.5 1.347,-1.016 0.749,-4.231 -1.232,-9.404 -3.508,-12.918 -2.672,-4.125 -8.222,-4.973 -12.655,-6.03 2.093,-1.887 3.982,-3.853 5.699,-6.092 8.911,-11.618 12.586,-24.948 10.735,-39.348 11.104,13.856 19.932,27.338 25.736,44.29 10.406,30.398 8.41,62.115 -5.743,91.002 -5.956,-15.267 -17.185,-28.439 -29.734,-38.736 -15.118,-11.825 -36.233,-18.903 -54.746,-23.599 -16.384,-4.157 -33.451,-6.063 -50.157,-8.529 -29.411,-4.266 -58.88,-8.091 -88.405,-11.476 -30.233,-3.229 -60.62,-6.619 -91.045,-5.566 -5.835,0.202 -11.872,0.143 -17.65,0.996 -5.159,0.762 -10.416,2.598 -15.429,4.046 -37.324,10.779 -69.189,32.679 -99.13,56.833 18.306,-29.139 76.318,-62.371 108.377,-74.586 8.518,-3.246 20.541,-3.088 26.631,-6.361 l 0.532,-0.292 c -0.576,-0.001 -1.147,-0.02 -1.722,-0.029 -5.094,-0.079 -10.111,-1.462 -15.112,-2.357 -5.483,-0.971 -11.004,-1.627 -16.563,-1.968 -40.989,-2.891 -76.891,4.709 -114.546,20.839 28.752,-21.452 78.329,-30.397 113.652,-29.444 10.981,0.296 22.193,3.204 33.04,2.914 l 0.733,-0.024 c -9.443,-2.184 -18.578,-5.076 -28.182,-6.613 -22.585,-3.615 -49.289,-1.465 -71.177,5.71 -0.076,0.025 -0.129,0.096 -0.194,0.144 l 0.534,-0.808 c 0.658,-0.013 1.046,-0.109 1.647,-0.387 8.305,-3.838 17.915,-5.541 26.79,-7.641 7.783,-1.841 15.518,-3.968 23.422,-5.238 23.715,-3.81 46.728,-1.041 70.41,1.221 -8.034,-5.161 -17.09,-8.969 -26.146,-11.938 -0.865,-6.066 -2.738,-12.322 -4.254,-18.265 -5.129,-20.105 -11.429,-45.319 -26.846,-59.988 z" style="fill:#71a5bf;fill-rule:nonzero" id="path2"></path>
                <path d="m 687.324,279.924 c 5.803,-5.199 11.25,-15.54 17.017,-19.402 4.461,0.36 3.798,18.473 8.555,22.444 2.058,-0.263 3.964,-0.29 6.035,-0.179 2.384,-3.922 10.689,-18.277 14.303,-19.822 0.915,0.384 1.199,0.441 1.676,1.373 1.248,2.441 1.754,5.808 2.564,8.457 2.013,6.58 4.641,12.4 8.49,18.099 1.357,-0.883 2.725,-1.769 4.015,-2.75 5.333,-4.052 7.052,-9.345 7.872,-15.682 0.585,-1.266 0.491,-1.819 1.872,-2.331 3.01,1.829 12.058,24.215 13.004,28.469 0.25,1.125 0.343,1.852 -0.103,2.939 -1.241,-0.101 -1.885,-0.489 -2.759,-1.4 -1.62,-1.69 -9.24,-19.955 -9.984,-22.592 -0.35,1.491 -0.782,3.047 -1.321,4.482 -1.391,3.698 -6.853,10.811 -10.771,12.388 -0.783,0.314 -1.45,-0.006 -2.191,-0.326 -5.769,-2.495 -11.131,-20.012 -13.195,-25.641 -3.758,5.649 -6.635,12.023 -11.287,17.014 -2.146,0.522 -4.297,1.254 -6.458,1.669 -1.352,0.259 -2.611,-0.112 -3.684,-0.964 -4.69,-3.729 -6.113,-14.552 -6.77,-20.163 -2.858,3.361 -12.292,16.943 -15.908,17.471 -1.066,0.156 -2.094,-0.314 -2.957,-0.888 -4.235,-2.818 -9.831,-10.167 -15.088,-14.189 -8.535,4.962 -15.579,11.75 -24.908,15.493 0.609,-0.771 1.228,-1.534 1.856,-2.289 3.432,-4.119 18.184,-17.31 23.447,-17.126 3.813,0.134 13.601,12.429 16.678,15.446 z" style="fill:#02084e;fill-rule:nonzero" id="path3"></path>
                <path d="m 551.116,744.756 c 3.099,1.411 6.107,3.618 9.031,5.391 4.963,3.043 10.029,5.903 15.199,8.579 15.87,8.199 32.856,14.712 49.585,20.945 8.618,3.211 50.134,18.446 56.991,14.25 5.233,-3.202 11.566,-22.793 13.697,-29.266 11.449,34.521 14.158,73.143 9.458,109.095 -1.191,17.325 -4.382,20.437 -16.391,32.225 -15.919,-4.489 -40.139,-16.605 -54.976,-24.411 -24.733,-13.012 -48.944,-29.468 -63.062,-54.273 -2.353,-4.133 -5.093,-8.705 -6.233,-13.37 -1.792,-7.332 -1.7,-15.601 -2.766,-23.12 -2.239,-15.802 -5.81,-30.819 -10.533,-46.045 z" style="fill:#6ce1d7;fill-rule:nonzero" id="path4"></path>
                <path d="m 231.835,475.384 c -0.162,10.181 -0.918,20.43 -0.659,30.608 0.186,7.261 2.331,15.336 1.209,22.439 -1.141,7.219 -4.472,14.74 -6.567,21.793 -6.311,21.248 -13.162,42.249 -18.975,63.653 -2.415,8.892 -4.306,17.883 -6.535,26.817 -2.717,10.891 -5.729,21.646 -7.868,32.677 -4.759,24.559 -7.969,49.286 -12.02,73.953 -1.107,-15.789 -6.519,-34.845 -15.236,-48.007 -6.797,-10.262 -15.085,-15.704 -27.066,-18.196 -1.618,-0.21 -3.244,-0.419 -4.873,-0.526 -16.871,-1.111 -33.332,6.928 -45.688,17.871 4.557,-8.049 7.86,-16.862 11.858,-25.21 7.189,-14.965 14.79,-29.718 22.805,-44.258 29.437,-53.679 68.986,-107.781 109.615,-153.614 z" style="fill:#6ce1d7;fill-rule:nonzero" id="path5"></path>
                <path d="m 388.374,208.92 c 6.365,1.774 12.673,3.731 18.924,5.872 -42.484,27.597 -80.203,72.594 -104.735,116.56 -1.787,3.187 -3.523,6.401 -5.209,9.642 -1.685,3.241 -3.32,6.508 -4.903,9.801 -1.583,3.292 -3.115,6.608 -4.594,9.949 -1.479,3.341 -2.906,6.704 -4.28,10.089 -1.373,3.385 -2.694,6.791 -3.961,10.218 -1.267,3.427 -2.48,6.872 -3.639,10.337 -1.159,3.465 -2.263,6.947 -3.313,10.446 -1.049,3.499 -2.044,7.014 -2.983,10.544 -0.94,3.531 -1.824,7.075 -2.652,10.634 -0.828,3.558 -1.6,7.128 -2.317,10.711 -0.716,3.583 -1.376,7.175 -1.98,10.778 -0.603,3.603 -1.15,7.215 -1.641,10.836 -0.49,3.62 -0.923,7.247 -1.3,10.881 -0.377,3.634 -0.696,7.273 -0.959,10.917 -0.262,3.644 -0.467,7.291 -0.615,10.941 -0.148,3.651 -0.239,7.303 -0.273,10.956 -0.033,3.653 -0.009,7.306 0.072,10.958 0.081,3.653 0.219,7.303 0.414,10.951 0.196,3.649 0.449,7.293 0.759,10.933 0.309,3.64 0.676,7.274 1.1,10.903 0.424,3.629 0.905,7.251 1.442,10.864 0.537,3.613 1.131,7.218 1.782,10.813 0.65,3.595 1.357,7.179 2.12,10.752 0.763,3.573 1.581,7.133 2.456,10.68 0.875,3.547 1.805,7.08 2.79,10.598 0.985,3.518 2.025,7.02 3.12,10.505 1.095,3.485 2.245,6.953 3.449,10.402 1.204,3.449 2.462,6.879 3.773,10.289 1.311,3.41 2.676,6.798 4.094,10.165 1.417,3.367 2.887,6.711 4.41,10.032 1.523,3.321 3.097,6.618 4.723,9.889 1.626,3.271 3.303,6.517 5.031,9.736 5.387,10.104 11.209,20.302 17.441,29.906 9.05,13.947 19.06,27.759 26.704,42.532 5.923,11.448 10.607,23.954 14.084,36.354 7.962,28.396 7.006,58.649 -4.276,85.991 -4.014,9.73 -9.225,18.803 -14.357,27.967 -1.164,0.511 -15.814,-0.751 -18.498,-0.702 11.202,-14.308 19.452,-31.892 23.94,-49.455 0.831,-3.283 1.519,-6.596 2.063,-9.939 0.543,-3.343 0.941,-6.703 1.194,-10.08 0.252,-3.377 0.357,-6.759 0.316,-10.145 -0.041,-3.387 -0.229,-6.765 -0.563,-10.135 -3.756,-40.104 -26.591,-70.508 -47.217,-103.451 -11.259,-17.983 -21.925,-37.349 -30.134,-56.914 -0.805,-1.953 -1.592,-3.914 -2.362,-5.881 -0.771,-1.967 -1.524,-3.94 -2.261,-5.92 -0.737,-1.98 -1.456,-3.966 -2.159,-5.959 -0.703,-1.992 -1.388,-3.99 -2.056,-5.995 -0.668,-2.004 -1.319,-4.014 -1.952,-6.029 -0.633,-2.015 -1.249,-4.036 -1.848,-6.062 -0.599,-2.026 -1.18,-4.057 -1.743,-6.093 -0.564,-2.036 -1.11,-4.077 -1.639,-6.122 -0.528,-2.046 -1.039,-4.096 -1.532,-6.15 -0.493,-2.054 -0.969,-4.112 -1.427,-6.175 -0.457,-2.062 -0.897,-4.128 -1.319,-6.198 -0.423,-2.07 -0.827,-4.144 -1.213,-6.221 -0.387,-2.077 -0.755,-4.157 -1.106,-6.24 -0.351,-2.083 -0.683,-4.17 -0.998,-6.259 -0.315,-2.089 -0.611,-4.18 -0.89,-6.274 -0.279,-2.095 -0.539,-4.191 -0.782,-6.289 -0.243,-2.099 -0.467,-4.199 -0.674,-6.302 -0.207,-2.103 -0.395,-4.207 -0.565,-6.312 -0.17,-2.106 -0.322,-4.213 -0.456,-6.321 -0.134,-2.109 -0.25,-4.218 -0.347,-6.329 -0.098,-2.11 -0.178,-4.221 -0.239,-6.333 -0.061,-2.111 -0.104,-4.223 -0.129,-6.336 -0.025,-2.112 -0.031,-4.224 -0.02,-6.337 0.011,-2.113 0.041,-4.225 0.089,-6.337 0.048,-2.112 0.114,-4.224 0.198,-6.335 0.085,-2.111 0.187,-4.221 0.307,-6.33 0.121,-2.109 0.26,-4.217 0.417,-6.324 0.157,-2.107 0.331,-4.212 0.524,-6.315 0.193,-2.104 0.405,-4.206 0.634,-6.306 0.229,-2.1 0.477,-4.198 0.742,-6.294 0.265,-2.096 0.549,-4.189 0.851,-6.28 0.301,-2.091 0.621,-4.18 0.958,-6.265 0.762,-4.481 1.609,-8.947 2.54,-13.396 0.931,-4.449 1.947,-8.879 3.047,-13.29 1.1,-4.411 2.283,-8.799 3.55,-13.164 1.267,-4.366 2.616,-8.706 4.047,-13.021 1.431,-4.314 2.944,-8.599 4.539,-12.856 1.595,-4.257 3.27,-8.483 5.025,-12.676 1.755,-4.193 3.589,-8.352 5.502,-12.475 1.913,-4.123 3.903,-8.209 5.972,-12.257 23.527,-46.153 65.095,-98.104 106.973,-128.453 z" style="fill:#7197bb;fill-rule:nonzero" id="path6"></path>
                <path d="m 260.054,354.439 0.476,0.081 0.276,0.669 c -1.97,5.876 -4.982,11.611 -7.176,17.482 -2.694,7.208 -4.238,15.864 -8.031,22.474 -4.204,7.326 -11.176,14.182 -16.507,20.757 -13.651,16.842 -27.815,33.483 -40.326,51.198 -11.647,16.269 -22.725,32.917 -33.234,49.944 -10.508,17.027 -20.422,34.394 -29.741,52.1 -2.598,5.033 -4.809,10.262 -7.318,15.341 3.197,-16.046 6.587,-31.961 6.822,-48.391 -0.41,-9.109 -1.597,-17.449 -5.375,-25.835 -4.041,-8.969 -10.649,-16.48 -20.035,-19.947 -9.052,-3.343 -19.791,-2.636 -28.508,1.347 21.646,-25.129 48.184,-46.744 74.544,-66.714 35.864,-27.171 72.799,-52.298 114.133,-70.506 z" style="fill:#6ce1d7;fill-rule:nonzero" id="path7"></path>
                <path d="m 643.964,666.839 c 16.01,14.421 37.096,52.351 44.039,72.662 1.16,3.393 2.228,6.959 2.112,10.581 -0.329,10.281 -7.588,28.415 -12.151,37.813 -10.53,-1.932 -21.078,-5.634 -31.217,-8.985 -21.308,-7.043 -42.311,-14.828 -62.61,-24.424 -15.523,-7.763 -28.268,-18.089 -39.671,-31.108 -3.052,-3.485 -6.24,-7.08 -8.156,-11.341 -1.951,-4.341 -3.151,-9.084 -4.763,-13.566 -3.018,-8.388 -6.935,-16.031 -11.704,-23.55 25.391,7.178 51.745,9.723 77.87,12.678 13.915,1.574 28.127,3.712 42.119,4.161 4.255,-7.854 4.222,-16.231 4.132,-24.921 z" style="fill:#6ce1d7;fill-rule:nonzero" id="path8"></path>
                <path d="m 236.389,48.838 c 2.08,2.368 3.68,7.743 5.048,10.717 2.608,5.666 5.632,11.173 9.649,15.978 10.273,12.287 22.147,23.581 35.32,32.728 20.996,14.581 51.673,26.784 76.707,32.252 20.364,4.449 41.286,6.359 62.05,7.795 15.126,1.046 30.462,0.427 45.507,1.798 11.173,8.899 16.578,28.675 21.384,41.92 -39.822,-18.807 -83.632,-19.593 -125.984,-28.469 -9.821,-2.059 -19.53,-4.226 -29.013,-7.555 -3.165,-1.138 -6.293,-2.372 -9.383,-3.703 -3.089,-1.331 -6.135,-2.755 -9.137,-4.273 -3.002,-1.519 -5.954,-3.128 -8.857,-4.828 -2.903,-1.7 -5.75,-3.488 -8.543,-5.363 -9.715,-6.502 -19.034,-14.565 -27.332,-22.817 -4.236,-4.212 -8.198,-8.749 -12.715,-12.663 6.023,7.293 12.606,14.276 19.068,21.186 63.792,63.629 141.611,39.204 213.713,74.378 2.549,9.117 4.741,18.511 5.848,27.919 -15.494,-3.599 -31.289,-6.124 -46.819,-9.658 -14.182,-3.228 -28.222,-7.402 -42.348,-10.928 -20.415,-5.097 -41.681,-10.329 -60.919,-18.957 -12.997,-5.829 -26.423,-14.138 -37.557,-23.041 -6.283,-5.025 -11.958,-10.734 -17.722,-16.333 -22.896,-22.241 -41.454,-45.02 -52.192,-75.609 -2.551,-7.268 -4.893,-14.805 -5.773,-22.474 z" style="fill:#4c739b;fill-rule:nonzero" id="path9"></path>
                <path d="m 569.733,843.806 c 3.053,2.141 5.924,5.9 8.596,8.576 4.676,4.665 9.618,9.029 14.826,13.092 27.563,21.195 63.093,37.893 95.796,49.286 4.387,-2.04 6.871,-5.336 9.62,-9.152 -3.309,18.561 -13.926,45.356 -22.465,62.611 -3.502,6.827 -7.332,13.935 -12.2,19.877 -13.207,-6.286 -26.104,-12.806 -39.648,-18.382 -20.167,-8.302 -40.921,-14.677 -61.818,-20.832 -2.304,-5.109 -5.016,-12.821 -4.854,-18.425 0.19,-6.555 3.244,-13.844 4.374,-20.45 3.763,-21.994 7.394,-43.83 7.773,-66.201 z" style="fill:#6ce1d7;fill-rule:nonzero" id="path10"></path>
                <path d="m 496.264,286.207 c 2.894,-0.038 5.869,-0.043 8.742,0.331 4.227,0.55 8.167,2.457 11.944,4.321 6.17,3.047 12.023,6.384 17.444,10.645 9.113,7.162 16.774,15.829 24.598,24.322 9.571,10.392 19.031,20.835 27.811,31.915 12.199,15.392 23.642,32.219 34.377,48.672 9.434,14.458 16.903,30.046 27.385,43.855 9.063,11.94 21.768,25.145 36.267,30.21 4.57,1.596 9.212,2.257 13.982,2.915 -18.374,8.617 -35.858,12.169 -56.081,12.373 2.508,-3.012 4.32,-5.896 5.225,-9.787 2.845,-12.241 -6.659,-25.481 -12.869,-35.256 -22.518,-32.681 -58.316,-56.446 -92.101,-76.163 -18.182,-10.61 -36.887,-20.714 -57.089,-26.941 -9.606,-2.961 -14.026,-3.138 -23.136,1.656 3.978,-4.593 7.558,-9.5 11.748,-13.921 11.293,-11.915 25.814,-20.075 40.848,-26.314 -2.151,-0.808 -4.485,-1.686 -6.819,-1.479 -14.165,1.254 -31.926,18.709 -40.795,29.041 4.593,-10.998 13.262,-19.194 20.267,-28.546 2.942,-3.928 5.515,-8.799 4.609,-13.858 -0.573,-3.197 -2.214,-5.332 -4.779,-7.211 2.79,-0.35 5.62,-0.533 8.422,-0.78 z" style="fill:#71a5bf;fill-rule:nonzero" id="path11"></path>
                <path d="m 458.651,596.774 c 4.401,1.038 8.867,3.285 13.234,4.714 7.815,2.556 15.917,4.49 23.928,6.317 22.112,5.043 45.385,7.303 68.047,7.554 10.418,0.116 20.831,-0.44 31.251,-0.402 14.003,11.495 26.752,25.172 38.728,38.734 1.123,9.881 2.552,19.727 1.556,29.677 l -0.514,0.421 c -4.75,0.292 -10.07,-0.89 -14.831,-1.441 -33.167,-3.837 -68.295,-5.564 -99.055,-19.514 -4.586,-2.079 -9.36,-4.082 -13.247,-7.35 -5.535,-4.654 -10.352,-10.704 -15.058,-16.175 -11.873,-13.806 -22.739,-28.279 -34.039,-42.535 z" style="fill:#6ce1d7;fill-rule:nonzero" id="path12"></path>
                <path d="m 356.781,545.367 c 0.5,0.518 0.403,0.294 0.602,0.918 7.888,24.703 20.506,47.364 31.61,70.674 -1.053,8.21 -1.101,16.53 -2.296,24.731 -3.469,23.824 -10.023,47.506 -17.262,70.426 -12.83,-4.231 -33.754,-17.375 -44.165,-26.226 -3.268,-2.753 -6.439,-5.411 -9.072,-8.796 -11.35,-14.592 -24.785,-46.732 -28.171,-64.966 7.406,8.525 15.201,13.431 25.648,17.684 3.817,1.554 10.723,4.923 14.793,3.009 1.527,-0.718 2.254,-3.757 2.796,-5.36 2.768,-8.184 4.822,-16.65 7.279,-24.936 5.707,-19.245 11.438,-38.263 18.238,-57.158 z" style="fill:#4c739b;fill-rule:nonzero" id="path13"></path>
                <path d="m 315.636,256.219 6.556,-0.105 c -4.394,7.872 -21.767,31.75 -28.43,37.085 -6.161,4.932 -16.999,10.334 -24.048,14.713 -22.137,13.755 -44.496,27.006 -66.054,41.671 -13.719,9.513 -27.239,19.301 -40.56,29.364 -4.647,3.471 -21.373,17.413 -24.933,18.68 l 0.62,-1.022 0.38,0.216 0.74,-0.756 -0.61,-0.059 10.15,-13.332 c 8.87,-11.994 22.961,-28.643 21.614,-44.539 -0.497,-5.865 -3.658,-10.863 -8.223,-14.47 -7.857,-6.207 -18.342,-6.75 -27.874,-5.591 7.632,-3.761 15.549,-6.932 23.32,-10.394 29.548,-13.165 59.16,-24.94 89.796,-35.319 20.883,-7.075 45.552,-15.362 67.556,-16.142 z" style="fill:#6ce1d7;fill-rule:nonzero" id="path14"></path>
                <path d="m 378.564,325.067 c 3.753,5.505 -23.113,31.202 -21.868,40.76 2.453,1.601 7.757,-2.806 9.931,-4.299 15.845,-10.885 32.988,-15.218 51.946,-16.654 -4.121,3.861 -8.149,7.786 -11.872,12.039 -4.638,5.3 -9.046,11.185 -14.303,15.889 -5.812,5.201 -12.818,9.308 -18.892,14.28 -18.808,15.379 -37.217,31.222 -55.228,47.528 -4.431,4.104 -8.867,8.131 -12.83,12.701 -9.997,-11.349 -17.613,-23.4 -21.538,-38.157 -0.957,-3.596 -1.57,-7.286 -1.161,-11.016 2.198,-20.033 20.214,-54.013 30.611,-71.912 0.1,1.242 0.231,2.481 0.393,3.717 0.809,6.166 4.723,28.575 9.505,32.225 0.365,-0.027 0.75,0.045 1.093,-0.08 1.095,-0.4 22.181,-16.102 25.142,-18.167 9.455,-6.595 19.114,-13.039 29.071,-18.854 z" style="fill:#4c739b;fill-rule:nonzero" id="path15"></path>
                <path d="m 246.815,611.816 c 0.798,0.786 19.619,42.792 19.671,44.397 0.007,0.225 0.001,0.449 0.007,0.674 0.426,15.287 -1.073,32.143 -1.367,47.612 -0.391,20.574 0.339,41.174 0.943,61.737 -3.959,-5.442 -8.934,-11.365 -15.868,-12.805 -4.316,-0.896 -8.592,0.358 -12.151,2.854 -17.87,12.533 -24.673,48.173 -28.573,68.603 -1.674,9.677 -2.978,19.403 -3.911,29.179 -0.947,-5.613 -1.06,-11.617 -1.431,-17.316 -3.294,-50.581 5.958,-117.669 20.208,-166.241 5.841,-19.91 14.023,-39.768 22.472,-58.694 z" style="fill:#6ce1d7;fill-rule:nonzero" id="path16"></path>
                <path d="m 354.348,465.386 c 0.811,4.983 -1.969,18.844 -2.291,25.332 -0.28,6.841 -0.205,13.677 0.224,20.51 0.3,4.671 1.197,9.708 0.786,14.359 -0.442,5.005 -2.01,9.988 -3.246,14.847 -2.302,9.185 -4.744,18.332 -7.326,27.442 -5.588,20.397 -10.986,40.843 -16.194,61.34 -5.47,-1.851 -10.88,-3.784 -16.046,-6.389 -12.394,-6.249 -16.205,-13.332 -24.431,-23.812 -2.475,-3.154 -5.056,-5.023 -6.369,-9.022 -7.241,-24.446 -10.758,-48.758 -12.633,-74.119 11.31,12.237 26.634,26.959 43.705,29.497 2.707,-7.093 4.748,-14.396 7.675,-21.422 7.4,-17.759 22.359,-45.084 36.146,-58.563 z" style="fill:#4c739b;fill-rule:nonzero" id="path17"></path>
                <path d="m 382.393,389.577 c -0.929,5.322 -11.321,21.114 -14.403,27.145 -5.33,10.429 -7.362,22.194 -12.899,32.395 -3.729,6.871 -8.915,13.182 -13.148,19.779 -14.21,22.145 -27.518,44.724 -34.799,70.166 -11.197,-6.232 -21.424,-13.111 -29.07,-23.613 -3.488,-4.791 -6.158,-9.746 -10.665,-13.681 -0.927,-27.349 3.107,-62.63 10.341,-89.043 4.7,15.592 13.817,31.446 28.162,39.972 4.133,-2.931 7.79,-7.009 11.52,-10.451 6.346,-5.789 12.77,-11.49 19.271,-17.103 10.545,-9.011 21.347,-17.701 32.406,-26.071 4.361,-3.262 8.948,-6.206 13.284,-9.495 z" style="fill:#4c739b;fill-rule:nonzero" id="path18"></path>
                <path d="m 425.322,344.49 c 4.707,-0.028 9.413,0.015 14.118,0.128 -24.113,25.396 -42.008,46.82 -55.156,79.648 -33.29,83.124 -8.558,135.815 32.492,208.65 10.901,19.342 22.457,38.501 31.189,58.951 5.777,13.532 11.223,27.466 15.14,41.664 11.514,41.725 12.169,88.053 2.684,130.232 -4.108,18.267 -10.151,35.755 -17.098,53.097 l -1.58,4.535 c -3.261,-0.956 -6.562,-1.799 -9.842,-2.687 21.494,-55.433 30.319,-120.305 16.541,-178.673 -4.136,-17.523 -10.866,-35.253 -18.134,-51.716 -4.769,-10.802 -10.698,-21.145 -16.305,-31.528 l -24.589,-45.348 c -17.62,-32.328 -34.083,-65.285 -35.874,-102.788 -1.44,-30.158 5.049,-65.128 17.479,-92.571 11.2,-24.728 30.693,-51.533 48.935,-71.594 z" style="fill:#7197bb;fill-rule:nonzero" id="path19"></path>
                <path d="m 395.513,631.691 c 5.411,4.262 25.458,43.629 29.6,52.021 -0.122,27.006 -5.999,47.744 -16.403,72.348 -5.15,12.178 -10.672,23.874 -16.992,35.492 -8.644,-7.684 -16.575,-15.192 -23.678,-24.374 -8.418,-11.026 -10.27,-18.548 -16.41,-30.242 -6.599,-12.569 -14.176,-24.219 -22.41,-35.764 8.896,4.781 33.42,18.032 42.535,16.581 2.499,-2.123 3.82,-8.811 4.859,-12.023 3.878,-11.982 7.569,-23.979 10.527,-36.226 3.031,-12.552 5.317,-25.267 8.372,-37.813 z" style="fill:#4c739b;fill-rule:nonzero" id="path20"></path>
                <path d="m 418.157,512.297 c 0.855,0.52 0.684,0.313 1.228,0.945 2.63,3.062 5.151,6.202 7.94,9.128 28.048,29.415 66.442,35.635 104.911,36.488 6.944,5.416 13.087,12.094 19.754,17.88 10.856,9.423 24.952,19.894 34.298,30.48 -2.538,0.124 -5.077,0.205 -7.618,0.243 -42.047,0.633 -103.365,-2.042 -135.06,-33.198 -13.363,-13.135 -25.402,-43.283 -25.453,-61.966 z" style="fill:#6ce1d7;fill-rule:nonzero" id="path21"></path>
                <path d="m 431.792,700.891 c 5.918,6.795 15.641,50.812 16.193,61.154 0.297,5.548 -2.138,10.009 -3.289,15.287 -2.394,10.98 -5.2,21.574 -9.74,31.92 -9.029,20.574 -26.756,42.154 -41.826,58.836 -4.204,-5.894 -8.256,-11.909 -12.377,-17.863 -3.704,-5.496 -6.096,-12.882 -10.373,-17.718 0.603,-20.853 0.273,-34.998 -3.319,-55.8 7.389,8.282 15.692,16.732 26.31,20.61 4.227,-5.659 7.517,-12.617 10.794,-18.872 13.984,-26.699 21.675,-48.105 27.627,-77.554 z" style="fill:#4c739b;fill-rule:nonzero" id="path22"></path>
                <path d="m 449.384,791.38 c 1.276,8.651 1.1,18.166 1.081,26.897 -0.023,10.352 0.451,21.17 -0.626,31.451 -0.609,5.81 -2.162,11.737 -3.384,17.459 -3.619,16.947 -7.825,34.217 -13.705,50.529 -7.856,-2.308 -16.056,-3.871 -23.993,-5.929 -12.225,-3.23 -24.323,-6.884 -36.292,-10.962 -5.841,-1.979 -12.476,-3.746 -17.528,-7.419 -2.259,-1.642 -3.189,-3.064 -3.671,-5.797 1.585,-5.021 4.172,-9.655 6.501,-14.362 4.859,-9.824 9.17,-19.513 11.204,-30.357 3.834,7.522 15.791,29.199 22.99,32.291 0.506,-0.115 0.578,-0.102 1.104,-0.396 3.276,-1.832 8.26,-8.686 11.013,-11.625 21.326,-22.769 35.864,-41.225 45.306,-71.78 z" style="fill:#4c739b;fill-rule:nonzero" id="path23"></path>
                <path d="m 477.066,798.408 c 5.316,4.355 27.855,40.15 31.984,47.254 2.644,4.548 4.948,9.267 7.253,13.992 2.738,-6.508 6.654,-12.657 9.745,-19.036 6.713,-13.859 11.849,-27.581 16.067,-42.385 0.755,7.893 1.909,15.729 2.451,23.646 0.939,13.705 0.634,27.542 -0.226,41.241 -0.41,4.065 -0.746,7.844 -2.19,11.701 -5.557,14.843 -24.051,34.551 -34.858,46.33 -2.291,-8.27 -5.401,-15.989 -9.263,-23.651 -4.941,-9.802 -23.673,-39.484 -24.46,-47.764 -0.686,-7.221 1.97,-17.699 2.703,-25.237 0.841,-8.652 0.723,-17.405 0.794,-26.091 z" style="fill:#6ce1d7;fill-rule:nonzero" id="path24"></path>
                <path d="m 413.76,449.873 c 0.488,3.687 -2.711,12.862 -3.51,17.12 -6.591,35.11 1.255,70.394 18.735,101.204 3.601,6.347 7.956,12.328 11.967,18.423 8.153,12.641 16.916,24.845 26.288,36.611 11.97,14.937 24.735,28.751 35.535,44.654 32.64,48.063 49.534,88.741 55.877,146.783 2.566,23.479 2.933,47.037 -0.035,70.513 -2.564,20.278 -8.41,39.544 -12.23,59.526 l -5.798,-1.547 c -2.484,-0.379 -4.992,-0.983 -7.46,-1.474 0.471,-1.099 0.916,-2.209 1.337,-3.329 5.904,-15.511 8.946,-31.005 11.772,-47.306 14.338,-82.728 -7.487,-157.312 -55.543,-224.956 -25.77,-36.273 -59.208,-72.594 -77.378,-113.392 -5.309,-11.922 -9.003,-27.775 -9.663,-40.871 -0.295,-5.843 1.117,-11.571 1.863,-17.338 1.915,-14.808 2.782,-30.545 8.243,-44.621 z" style="fill:#7197bb;fill-rule:nonzero" id="path25"></path>
                <path d="m 422.116,444.282 c 7.753,21.94 20.851,37.96 41.234,49.456 5.454,3.077 12.205,5.157 16.798,9.455 5.206,4.872 9.568,11.175 14.406,16.469 10.252,11.218 20.916,21.945 31.547,32.795 -2.334,0.048 -4.64,-0.047 -6.969,-0.163 -16.741,-1.157 -34.401,-5.145 -49.821,-11.645 -25.788,-10.87 -42.569,-25.22 -52.98,-51.369 -4.714,-11.838 0.95,-33.571 5.785,-44.998 z" style="fill:#6ce1d7;fill-rule:nonzero" id="path26"></path>
                <path d="m 523.136,734.346 c 2.013,2.562 3.345,6.503 4.38,9.567 4.057,12.01 9.607,26.01 10.658,38.633 1.478,17.761 -13.935,47.943 -21.947,64.18 -8.72,-16.703 -20.789,-32.149 -31.578,-47.583 -2.186,-3.346 -5.466,-6.878 -6.931,-10.588 -2.498,-6.328 -2.848,-19.327 -3.921,-26.634 -1.268,-8.634 -3.028,-17.216 -4.738,-25.772 14.161,12.297 34.255,34.287 43.861,50.059 5.722,-16.855 6.935,-34.528 10.216,-51.862 z" style="fill:#6ce1d7;fill-rule:nonzero" id="path27"></path>
                <path d="m 237.831,421.39 c 0.637,3.881 -2.213,14.61 -2.88,19.062 -0.767,5.015 -1.308,10.054 -1.624,15.117 -6.64,10.225 -16.637,20.122 -24.487,29.637 -13.411,16.254 -26.44,33.65 -38.176,51.147 -11.679,17.293 -22.783,34.948 -33.312,52.965 -10.529,18.017 -20.462,36.356 -29.797,55.019 -9.703,19.394 -17.797,39.587 -27.86,58.77 0.028,-4.974 6.239,-20.38 8.01,-26.077 3.667,-11.794 7.695,-23.454 12.699,-34.756 4.834,-10.919 10.466,-21.521 15.599,-32.306 7.081,-14.878 13.887,-29.904 21.666,-44.436 17.541,-32.765 38.062,-65.364 60.338,-95.161 12.587,-16.837 26.175,-33.001 39.824,-48.981 z" style="fill:#7197bb;fill-rule:nonzero" id="path28"></path>
                <path d="m 234.238,555.835 c 1.377,4.486 1.865,9.51 2.727,14.148 1.739,9.477 3.645,18.921 5.72,28.33 -4.722,10.834 -8.6,21.893 -12.483,33.048 -2.189,6.239 -4.264,12.517 -6.225,18.832 -1.961,6.315 -3.806,12.663 -5.535,19.045 -1.73,6.382 -3.343,12.794 -4.839,19.235 -1.497,6.441 -2.875,12.906 -4.136,19.397 -1.261,6.491 -2.404,13.003 -3.428,19.536 -1.024,6.532 -1.929,13.081 -2.715,19.647 -0.785,6.565 -1.451,13.143 -1.998,19.733 -0.547,6.589 -0.973,13.187 -1.279,19.792 -0.699,13.065 -1.295,26.182 -0.85,39.264 0.417,12.265 1.872,24.485 3.362,36.658 l -0.182,0.481 c -0.082,-0.119 -0.176,-0.232 -0.246,-0.359 -1.949,-3.532 -5.634,-27.545 -6.406,-32.95 -5.331,-37.307 -3.994,-74.043 0.831,-111.325 2.531,-20.829 6.013,-41.497 10.446,-62.005 7.422,-33.926 17.498,-67.201 27.236,-100.507 z" style="fill:#7197bb;fill-rule:nonzero" id="path29"></path>
                <path d="m 545.785,302.554 c 6.674,-0.105 13.353,-0.356 19.994,0.46 34.476,4.234 65.434,24.452 89.369,48.71 12.556,12.724 23.856,25.858 40.04,34.228 10.668,5.517 18.407,6.636 29.872,8.781 l -0.279,0.329 c -0.337,0.079 -0.676,0.151 -1.017,0.204 -2.246,0.335 -4.503,0.562 -6.77,0.682 -2.268,0.121 -4.536,0.134 -6.805,0.039 -2.269,-0.095 -4.528,-0.296 -6.778,-0.605 -2.249,-0.309 -4.479,-0.723 -6.69,-1.243 -26.862,-6.079 -34.178,-20.373 -54.828,-35.183 -17.142,-12.294 -41.313,-24.22 -63.028,-20.719 -4.116,-4.362 -7.77,-9.212 -11.823,-13.652 -6.863,-7.517 -14.207,-14.678 -21.257,-22.031 z" style="fill:#6ce1d7;fill-rule:nonzero" id="path30"></path>
                <path d="m 378.05,47.945 c 3.538,3.496 5.525,9.039 8.639,13.013 9.087,11.598 22.054,23.473 34.232,31.695 19.876,13.42 43.658,22.193 66.094,30.175 8.975,3.193 23.756,6.826 31.108,11.926 4.374,3.033 8.039,8.678 11.009,13.044 -13.901,-0.688 -27.818,-3.252 -41.667,-4.728 -8.665,-0.924 -17.44,-0.848 -26.09,-1.885 -1.674,-0.2 -3.231,-0.498 -4.763,-1.244 -9.17,-4.46 -18.192,-10.691 -26.448,-16.677 C 405.599,105.455 382.968,78.696 378.05,47.945 Z" style="fill:#4c739b;fill-rule:nonzero" id="path31"></path>
                <path d="m 604.666,346.542 c 18.602,5.999 33.284,15.694 48.216,28.033 2.868,27.979 9.455,55.705 21.972,81.022 3.423,6.923 7.718,13.309 11.347,20.113 -4.337,-2.077 -8.211,-4.826 -12,-7.76 -17.254,-13.147 -28.337,-31.172 -39.083,-49.571 2.603,-5.179 4.368,-10.68 4.873,-16.472 0.291,-3.336 0.438,-7.796 -1.815,-10.485 l -0.963,-0.076 c -3.384,3.83 -6.035,8.186 -9.611,11.861 l -0.549,0.558 c -7.632,-13.784 -17.535,-26.274 -24.68,-40.306 0.149,-5.642 0.492,-11.534 2.293,-16.917 z" style="fill:#6ce1d7;fill-rule:nonzero" id="path32"></path>
                <path d="m 378.413,248.506 c 0.218,3.587 -2.554,8.979 -0.191,12.089 0.181,0.239 0.416,0.433 0.624,0.65 -0.765,1.294 -9.401,5.955 -11.296,7.159 -7.434,4.726 -21.513,14.742 -24.804,23.191 -0.574,1.475 -0.608,2.544 0.015,3.978 1.193,0.36 1.853,0.348 3.038,-0.115 2.565,-1 4.948,-2.727 7.442,-3.93 6.968,-3.36 16.337,-5.871 23.998,-3.69 3.393,0.966 6.275,3.069 7.859,6.266 2.791,5.634 0.969,12.456 -0.993,18.057 -3.485,3.391 -8.187,6.021 -12.252,8.694 -6.673,4.297 -13.264,8.717 -19.773,13.26 -9.405,6.764 -18.285,14.208 -27.152,21.654 -3.848,-12.491 -6.054,-23.975 -6.328,-37.083 3.447,-6.102 8.567,-11.815 12.852,-17.367 13.462,-17.442 29.557,-39.401 46.961,-52.813 z" style="fill:#4c739b;fill-rule:nonzero" id="path33"></path>
                <path d="m 471.506,863.271 c 2.846,2.889 5.01,8.757 7.042,12.368 11.819,21.009 19.783,32.895 25.128,57.286 11.933,-10.011 28.737,-30.658 37.308,-43.834 -1.996,8.411 -2.971,17.267 -4.412,25.804 -1.91,8.669 -3.924,17.603 -7.015,25.933 -26.169,-5.572 -52.102,-12.264 -78.174,-18.289 9.069,-19.028 14.689,-39.002 20.123,-59.268 z" style="fill:#6ce1d7;fill-rule:nonzero" id="path34"></path>
                <path d="m 495.514,682.374 c 0.859,0.735 0.571,0.407 1.216,1.256 4.477,5.892 8.033,12.592 11.668,19.019 3.075,5.435 6.982,11.372 8.648,17.413 3.39,12.291 -4.398,39.605 -6.402,53.032 -8.626,-14.026 -21.924,-26.009 -33.471,-37.677 -3.81,-4.052 -8.172,-8.158 -11.213,-12.82 -3.441,-5.274 -5.131,-12.004 -7.274,-17.892 -1.913,-5.355 -4.085,-10.604 -6.514,-15.745 15.174,11.299 30.446,22.308 44.215,35.329 0.448,-14.117 0.384,-27.84 -0.873,-41.915 z" style="fill:#6ce1d7;fill-rule:nonzero" id="path35"></path>
                <path d="m 280.469,313.505 0.432,0.695 c -5.364,7.738 -9.15,16.362 -13.69,24.581 -17.96,9.373 -36.256,17.669 -53.782,27.924 -48.979,28.661 -91.599,66.143 -131.953,105.697 l -0.358,-0.589 c 8.444,-13.251 21.371,-27.289 32.385,-38.523 6.022,-6.221 12.202,-12.28 18.541,-18.178 6.339,-5.898 12.827,-11.626 19.465,-17.184 6.639,-5.559 13.418,-10.94 20.337,-16.144 6.92,-5.203 13.971,-10.223 21.153,-15.058 15.072,-10.139 30.672,-19.245 46.179,-28.67 13.736,-8.349 27.061,-17.026 41.291,-24.551 z" style="fill:#7197bb;fill-rule:nonzero" id="path36"></path>
                <path d="m 301.314,184.653 c 9.238,0.945 21.193,1.449 30.027,3.797 5.829,1.549 11.199,5.664 16.792,8.035 8.382,3.554 17.146,6.132 25.495,9.78 -2.993,2.769 -6.452,6.723 -10.15,8.445 -5.102,2.376 -12.432,3.106 -18.014,4.481 -13.371,3.294 -26.865,6.642 -40.075,10.515 -16.514,4.237 -32.786,10.538 -49.094,15.592 16.038,-8.373 36.972,-16.225 48.804,-30.401 3.701,-4.435 6.273,-10.099 5.627,-15.981 -0.691,-6.293 -4.647,-10.564 -9.412,-14.263 z" style="fill:#6ce1d7;fill-rule:nonzero" id="path37"></path>
                <path d="m 455.448,627.381 c 0.389,0.279 0.498,0.338 0.876,0.73 4.776,4.947 30.865,39.633 32.224,44.371 3.473,12.106 2.509,27.135 2.515,39.68 -11.151,-10.622 -24.609,-19.807 -36.894,-29.1 -2.552,-2.025 -5.341,-3.815 -8.021,-5.669 -5.787,-13.492 -13.67,-26.302 -20.334,-39.422 12.973,9.9 25.828,20.592 39.742,29.13 -3.398,-13.242 -6.476,-26.533 -10.108,-39.72 z" style="fill:#6ce1d7;fill-rule:nonzero" id="path38"></path>
                <path d="m 460.849,264.219 c 6.335,-0.37 12.632,-0.039 18.947,0.449 -21.981,8.344 -42.204,20.537 -61.439,33.961 -6.43,4.488 -12.913,9.113 -19.048,13.994 -2.306,1.835 -4.581,4.754 -6.921,6.296 -0.299,0.197 -0.702,0.15 -1.053,0.225 0.375,-1.344 0.69,-2.702 0.946,-4.074 1.53,-8.158 2.621,-17.976 -2.53,-25.146 -4.199,-5.844 -10.411,-7.283 -17.099,-8.267 9.455,-2.345 18.453,-6.17 27.84,-8.744 19.58,-5.368 40.127,-7.694 60.357,-8.694 z" style="fill:#6ce1d7;fill-rule:nonzero" id="path39"></path>
                <path d="m 482.619,291.624 c 0.549,0.147 1.057,0.256 1.569,0.529 1.267,0.677 2.039,1.703 2.486,3.054 2.266,6.846 -11.777,20.518 -15.685,26.079 -3.683,5.242 -6.925,10.65 -9.648,16.449 -18.255,-5.165 -42.297,-5.961 -60.689,-1.044 -3.073,0.654 -6.134,1.672 -9.158,2.534 26.518,-19.679 58.327,-40.558 91.125,-47.601 z" style="fill:#6ce1d7;fill-rule:nonzero" id="path40"></path>
                <path d="m 461.477,372.468 c -0.235,3.135 -2.333,7.354 -3.319,10.408 -1.684,5.216 -3.2,10.502 -4.109,15.915 -3.65,21.726 -0.648,45.364 6.694,66.093 3.126,8.828 7.218,17.41 11.016,25.97 -5.11,-2.843 -9.936,-5.824 -14.534,-9.45 -15.081,-12.614 -25.536,-28.35 -29.812,-47.558 5.814,-19.915 18.813,-47.084 34.064,-61.378 z" style="fill:#6ce1d7;fill-rule:nonzero" id="path41"></path>
                <path d="m 393.233,578.242 c 2.76,1.308 27.017,25.429 32.22,30.233 0.047,-10.096 -2.627,-20.467 -4.42,-30.39 4.135,6.585 8.607,13.086 13.155,19.397 4.192,5.816 8.952,11.502 11.993,18.028 1.775,3.809 2.636,8.285 3.679,12.352 2.636,8.793 5.053,17.645 7.25,26.558 -10.637,-8.655 -22.602,-15.653 -33.068,-24.555 -2.65,-2.255 -5.143,-4.716 -7.21,-7.523 -7.155,-9.718 -18.353,-32.461 -23.599,-44.1 z" style="fill:#6ce1d7;fill-rule:nonzero" id="path42"></path>
                <path d="m 411.2,443.007 c 0.127,1.609 -5.35,20.777 -6.085,24.464 -1.641,8.233 -1.901,16.67 -3.442,24.899 -1.396,7.452 -3.818,14.707 -5.386,22.132 -1.481,7.008 -1.965,14.43 -2.743,21.555 -6.292,-11.665 -13.596,-22.712 -18.833,-34.929 -4.685,-10.459 3.222,-40.738 5.281,-52.402 2.537,10.972 3.511,23.793 8.195,34.039 6.52,-14.175 14.463,-26.773 23.013,-39.758 z" style="fill:#6ce1d7;fill-rule:nonzero" id="path43"></path>
                <path d="m 346.322,227.004 0.893,0.137 c -0.684,2.99 -10.44,12.119 -13.027,14.654 -17.967,3.479 -35.759,7.693 -53.378,12.642 -17.619,4.949 -35.003,10.617 -52.153,17.003 -28.182,10.663 -55.613,23.67 -83.007,36.188 -0.495,0.258 -0.175,0.142 -1.005,0.179 60.238,-41.165 132.618,-60.252 201.677,-80.803 z" style="fill:#7197bb;fill-rule:nonzero" id="path44"></path>
                <path d="m 290.509,698.783 c 1.885,1.711 28.309,45.476 28.747,47.387 -1.356,-0.545 -2.373,-0.651 -3.785,-0.305 -11.79,2.881 -19.028,14.996 -24.611,24.769 -3.537,6.85 -5.831,14.203 -8.834,21.281 0.014,-29.239 3.868,-64.15 8.483,-93.132 z" style="fill:#6ce1d7;fill-rule:nonzero" id="path45"></path>
                <path d="m 406.839,390.385 c 0.954,5.905 -6.07,25.114 -3.07,29.839 0.397,-0.04 0.686,-0.034 1.058,-0.27 3.445,-2.191 6.726,-6.188 9.929,-8.918 6.994,-5.961 14.35,-11.549 21.447,-17.399 -3.742,5.358 -7.305,10.835 -10.261,16.672 -1.87,3.693 -3.235,8.294 -5.63,11.619 l -1.356,-0.495 c -3.364,1.012 -8.447,11.931 -10.4,15.314 -6.67,10.9 -13.572,21.65 -19.126,33.176 -2.067,-9.348 -5.636,-20.252 -5.368,-29.792 0.328,-11.687 16.611,-39.371 22.777,-49.746 z" style="fill:#6ce1d7;fill-rule:nonzero" id="path46"></path>
                <path d="m 373.859,512.808 c 1.551,1.632 2.687,4.246 3.842,6.217 2.495,4.257 15.782,29.114 17.456,30.789 l 0.407,-0.239 c 2.937,-5.28 3.177,-21.45 4.561,-28.399 l 0.136,-0.664 c 2.365,8.07 3.536,16.448 6.048,24.511 1.098,3.527 2.32,7.04 3.877,10.394 2.42,5.215 4.342,7.231 4.944,13.197 1.177,8.58 2.196,17.179 3.056,25.796 -20.318,-20.514 -31.936,-25.749 -39.385,-55.475 -2.125,-8.478 -4,-17.446 -4.942,-26.127 z" style="fill:#6ce1d7;fill-rule:nonzero" id="path47"></path>
                <path d="m 416.682,218.993 c 16.481,6.157 32.576,8.5 49.751,11.53 -17.951,1.706 -36.182,7.61 -53.058,13.737 -11.496,4.147 -22.761,10.037 -33.188,16.381 1.824,-5.759 2.876,-11.82 4.141,-17.724 8.733,-9.702 21.343,-17.175 32.354,-23.924 z" style="fill:#4c739b;fill-rule:nonzero" id="path48"></path>
                <path d="m 449.602,345.512 0.318,0.29 c -0.369,2.262 -4.661,6.667 -6.075,8.802 -2.486,3.75 -9.211,15.13 -9.103,19.268 0.028,1.104 0.211,1.234 0.948,1.963 3.357,-0.391 14.004,-8.902 17.547,-11.158 6.003,-3.824 12.456,-6.74 18.968,-9.562 -4.657,6.032 -10.711,10.649 -16.276,15.8 -4.416,4.087 -8.363,8.455 -12.213,13.063 -3.549,4.532 -13.058,8.812 -18.17,12.16 -5.785,3.789 -11.325,7.835 -16.234,12.727 1.723,-9.383 2.693,-21.604 7.678,-29.799 5.063,-8.326 23.719,-31.341 32.612,-33.554 z" style="fill:#6ce1d7;fill-rule:nonzero" id="path49"></path>
                <path d="m 273.45,668.272 c 4.222,3.918 8.428,13.002 11.752,18.093 -3.568,33.455 -7.813,66.78 -7.751,100.51 0.099,2.815 -0.064,5.502 -0.314,8.302 -8.206,-41.446 -4.804,-84.919 -3.687,-126.905 z" style="fill:#7197bb;fill-rule:nonzero" id="path50"></path>
                <path d="m 513.919,122.381 c 3.636,0.573 8.274,3.966 11.593,5.804 16.69,9.239 32.436,18.847 47.083,31.153 3.351,2.816 7.089,5.771 9.865,9.154 -7.357,-2.07 -14.783,-3.855 -22.277,-5.356 -16.319,-2.669 -32.532,-5.648 -48.374,-10.477 7.613,0.346 14.636,1.737 22.284,0.667 0.984,-0.622 2.076,-1.253 2.816,-2.169 0.847,-1.05 0.983,-2.216 0.767,-3.501 -1.492,-8.906 -16.613,-20.152 -23.757,-25.275 z" style="fill:#6ce1d7;fill-rule:nonzero" id="path51"></path>
                <path d="m 615.425,137.59 c 3.234,2.494 5.398,8.541 8.976,9.633 5.671,10.3 27.321,32.519 29.203,40.029 4.199,4.855 7.553,11.107 11.099,16.494 -5.299,-3.637 -10.775,-6.714 -16.309,-9.958 -11.987,-5.042 -23.628,-10.798 -35.732,-15.611 0.899,-1.515 1.608,-3.132 3.204,-4.009 2.85,0.743 6.226,1.338 9.031,0.121 0.181,-0.077 0.357,-0.164 0.528,-0.261 0.171,-0.097 0.337,-0.202 0.496,-0.317 0.16,-0.114 0.313,-0.237 0.46,-0.368 0.147,-0.131 0.286,-0.269 0.418,-0.415 0.132,-0.146 0.256,-0.299 0.371,-0.458 0.115,-0.159 0.222,-0.323 0.319,-0.494 0.097,-0.171 0.186,-0.346 0.265,-0.526 0.079,-0.181 0.147,-0.365 0.206,-0.552 2.15,-6.878 -4.75,-18.144 -7.785,-24.336 0.147,-2.505 -3.44,-6.75 -4.75,-8.972 z" style="fill:#6ce1d7;fill-rule:nonzero" id="path52"></path>
                <path d="m 653.604,187.252 c 4.199,4.855 7.553,11.107 11.099,16.494 -5.299,-3.637 -10.775,-6.714 -16.309,-9.958 l 0.534,-0.39 c 1.37,0.5 2.333,0.905 3.825,0.649 1.17,-1.11 1.386,-2.343 1.789,-3.841 -0.343,-0.733 -0.561,-1.353 -0.755,-2.149 -0.065,-0.267 -0.122,-0.537 -0.183,-0.805 z" style="fill:#6ce1d7;fill-rule:nonzero" id="path53"></path>
                <path d="m 635.765,300.396 23.419,3.075 c -4.595,4.901 -9.238,10.148 -11.635,16.53 -2.012,5.357 -1.872,11.885 0.623,17.078 0.077,0.159 0.158,0.316 0.237,0.474 l -0.448,0.008 c -8.94,-7.341 -18.072,-14.314 -27.764,-20.639 2.609,-7.479 9.506,-11.982 15.568,-16.526 z" style="fill:#6ce1d7;fill-rule:nonzero" id="path54"></path>
                <path d="m 490.377,362.491 c 4.235,1.192 8.166,3.801 11.961,5.987 -17.46,9.309 -30.387,21.838 -39.574,39.359 l -3.633,7.782 c 0.515,-11.876 1.907,-23.646 6.575,-34.701 4.434,-10.502 14.736,-14.458 24.671,-18.427 z" style="fill:#6ce1d7;fill-rule:nonzero" id="path55"></path>
                <path d="m 609.809,131.432 c 9.564,8.411 19.9,15.906 29.176,24.621 19.17,18.012 53.884,57.843 55.769,84.794 -5.249,-13.265 -11.506,-23.952 -23.298,-32.312 -6.233,-18.093 -21.831,-37.092 -34.959,-51.062 -3.174,-3.377 -6.966,-7.852 -11.143,-9.967 -0.543,-0.275 -0.468,-0.232 -0.953,-0.283 -3.578,-1.092 -5.742,-7.139 -8.976,-9.633 1.31,2.222 4.897,6.467 4.75,8.972 -3.655,-3.512 -7.412,-10.749 -10.366,-15.13 z" style="fill:#71a5bf;fill-rule:nonzero" id="path56"></path>
                <path d="m 695.782,308.197 c 3.53,-0.818 8.442,0.38 11.947,1.141 -9.512,3.818 -19.75,6.874 -28.407,12.463 -10.176,6.567 -12.792,14.827 -15.23,26.057 l -0.322,2.533 -0.628,0.431 c -2.815,-1.038 -5.301,-4.316 -7.465,-6.411 1.385,-7.048 2.599,-14.851 7.295,-20.558 7.821,-9.505 20.955,-14.296 32.81,-15.656 z" style="fill:#71a5bf;fill-rule:nonzero" id="path57"></path>
                <path d="m 537.589,130.596 c 4.921,1.666 9.779,3.497 14.575,5.494 4.797,1.997 9.52,4.154 14.169,6.472 4.649,2.318 9.215,4.791 13.696,7.419 4.481,2.629 8.868,5.406 13.16,8.333 7.464,5.103 14.587,11.836 22.677,15.854 -1.596,0.877 -2.305,2.494 -3.204,4.009 -15.905,-3.785 -36.225,-23.447 -50.443,-32.934 -7.957,-5.309 -16.709,-9.372 -24.63,-14.647 z" style="fill:#71a5bf;fill-rule:nonzero" id="path58"></path>
                <path d="m 656.89,378.221 c 4.238,2.18 8.012,6.483 12.046,9.226 -2.701,10.056 -2.284,21.536 0.275,31.59 3.108,-0.709 6.036,-2.038 8.985,-3.229 -2.037,2.656 -4.886,5.644 -5.742,8.904 -2.674,10.183 12.717,37.357 18.369,46.54 1.281,1.766 2.417,3.43 3.316,5.423 l -0.289,0.344 c -0.174,-0.124 -0.351,-0.244 -0.521,-0.373 -4.002,-3.021 -6.835,-9.045 -9.191,-13.385 -1.755,-3.304 -3.435,-6.646 -5.04,-10.025 -1.606,-3.379 -3.136,-6.792 -4.589,-10.239 -1.454,-3.447 -2.83,-6.925 -4.129,-10.433 -1.299,-3.509 -2.519,-7.044 -3.661,-10.607 -1.141,-3.563 -2.203,-7.149 -3.185,-10.759 -0.982,-3.61 -1.883,-7.24 -2.703,-10.89 -0.821,-3.65 -1.559,-7.317 -2.216,-11 -0.657,-3.683 -1.232,-7.378 -1.725,-11.087 z" style="fill:#71a5bf;fill-rule:nonzero" id="path59"></path>
                <path d="m 686.05,205.718 c 6.736,1.014 18.693,7.503 23.416,12.542 5.456,5.819 5.861,12.517 5.514,20.029 -5.28,-2.431 -10.724,-4.595 -16.073,-6.876 -3.734,-9.715 -7.208,-16.972 -12.857,-25.695 z" style="fill:#71a5bf;fill-rule:nonzero" id="path60"></path>
                <path d="m 607.74,230.062 c 19.931,2.073 33.459,5.517 49.446,18.24 -4.35,0.173 -8.732,0.426 -13.085,0.403 -14.664,-0.077 -26.413,-8.666 -36.361,-18.643 z" style="fill:#6ce1d7;fill-rule:nonzero" id="path61"></path>
                <path d="m 666.684,304.492 c 5.174,0.039 10.396,0.49 15.526,1.13 l -0.522,0.251 c -12.858,6.258 -21.541,12.349 -26.353,26.212 -0.836,3.268 -1.849,6.344 -3.071,9.488 l -2.518,-2.606 c 0.135,-4.209 -0.342,-8.724 0.464,-12.863 1.791,-9.198 9.045,-16.487 16.474,-21.612 z" style="fill:#71a5bf;fill-rule:nonzero" id="path62"></path>
                <path d="m 581.952,293.96 c 10.147,1.28 20.319,2.323 30.515,3.129 -2.391,2.783 -4.604,5.762 -6.878,8.644 l -2.057,2.626 c -8.155,-3.775 -16.623,-6.159 -25.344,-8.186 1.177,-2.125 2.458,-4.165 3.764,-6.213 z" style="fill:#6ce1d7;fill-rule:nonzero" id="path63"></path>
                <path d="m 744.198,315 c 6.482,1.118 12.809,3.365 19.064,5.359 -5.087,3.956 -10.866,7.135 -16.433,10.361 -4.414,2.476 -8.889,4.759 -13.423,7 4.74,-7.434 8.582,-14.139 10.792,-22.72 z" style="fill:#6ce1d7;fill-rule:nonzero" id="path64"></path>
                <path d="m 595.351,232.029 c 1.276,-0.097 3.157,-0.409 4.372,0.014 3.629,1.266 7.11,6.777 10.018,9.333 2.219,1.949 4.976,3.52 7.504,5.05 1.599,0.967 5.628,2.604 6.35,4.163 -3.017,-0.143 -5.928,-0.522 -8.886,-1.139 -6.454,-1.346 -13.861,-4.271 -17.504,-10.075 -1.331,-2.122 -2.389,-4.834 -1.854,-7.346 z" style="fill:#6ce1d7;fill-rule:nonzero" id="path65"></path>
                <path d="m 529.183,289.677 c 12.694,0.723 24.941,1.158 36.404,7.468 l -0.289,0.317 c -6.492,-1.248 -16.717,-1.021 -22.944,1.12 -4.071,-3.303 -8.772,-6.052 -13.171,-8.905 z" style="fill:#4c739b;fill-rule:nonzero" id="path66"></path>
                <path d="m 618.187,297.966 c 3.97,0.565 7.978,0.953 11.962,1.414 -4.764,3.723 -8.719,7.668 -12.531,12.362 -0.484,0.681 -0.873,1.1 -1.478,1.655 -2.471,-0.152 -5.067,-2.025 -7.257,-3.179 2.717,-4.375 5.819,-8.459 9.304,-12.252 z" style="fill:#71a5bf;fill-rule:nonzero" id="path67"></path>
                <path d="m 583.039,342.327 c 5.237,0.369 10.5,1.534 15.672,2.434 L 598,358.089 c -1.105,-0.038 -2.435,-2.412 -3.195,-3.359 -3.567,-4.442 -7.72,-8.403 -11.766,-12.403 z" style="fill:#71a5bf;fill-rule:nonzero" id="path68"></path>
                <path d="m 635.439,400.425 c 0.244,3.135 -1.952,11.335 -3.705,13.769 l -0.718,-0.566 c -1.034,-1.919 -1.972,-3.902 -2.951,-5.85 2.785,-2.184 5.139,-4.623 7.374,-7.353 z" style="fill:#71a5bf;fill-rule:nonzero" id="path69"></path>
                <path d="m 792.128,337.699 c 1.891,1.377 3.574,3.022 5.295,4.603 l -6.236,3.966 -4.272,2.158 c 1.878,-3.494 3.505,-7.146 5.213,-10.727 z" style="fill:#6ce1d7;fill-rule:nonzero" id="path70"></path>
                <path d="m 477.246,354.228 6.076,3.836 -5.076,2.772 -4.18,3.399 c 1.197,-3.275 2.144,-6.675 3.18,-10.007 z" style="fill:#71a5bf;fill-rule:nonzero" id="path71"></path>
                <path d="m 909.457,357.68 c 0.925,0.673 1.371,1.336 1.884,2.336 5.566,10.869 5.333,26.259 1.413,37.596 -4.242,12.266 -11.469,18.571 -22.827,24.16 19.542,-0.56 41.505,6.092 57.792,16.694 23.452,15.267 28.375,28.593 33.835,54.918 -10.905,-14.375 -23.838,-26.912 -40.441,-34.437 -15.35,-6.958 -36.787,-8.56 -52.698,-2.594 1.577,0.313 3.099,0.712 4.623,1.227 17.724,6.001 40.18,27.26 51.982,41.886 6.673,8.27 12.874,17.808 17.473,27.371 17.337,36.051 17.566,78.932 4.268,116.344 -13.265,37.321 -37.943,73.976 -70.397,97.002 -4.79,3.399 -9.633,6.84 -14.942,9.384 2.383,-3.227 4.701,-6.5 6.954,-9.82 2.253,-3.319 4.438,-6.682 6.557,-10.089 2.119,-3.407 4.168,-6.854 6.149,-10.343 1.981,-3.488 3.892,-7.015 5.732,-10.58 1.841,-3.565 3.609,-7.165 5.306,-10.8 1.697,-3.635 3.32,-7.302 4.87,-11.002 1.551,-3.701 3.027,-7.43 4.428,-11.189 1.401,-3.759 2.727,-7.544 3.978,-11.356 9.389,-29.339 11.425,-64.894 -3.05,-92.953 -3.71,-6.389 -8.531,-12.579 -13.888,-17.673 -10.72,-10.194 -21.806,-13.143 -36.27,-12.696 7.267,3.883 11.331,9.969 14.184,17.501 7.726,20.392 6.534,45.224 -2.558,64.928 -6.398,13.868 -18.669,27.749 -33.247,33.187 9.096,-21.968 14.321,-41.849 9.989,-65.762 -3.571,-19.712 -13.601,-36.842 -30.093,-48.363 6.419,13.291 10.268,29.532 5.338,43.978 -4.173,12.227 -12.718,18.697 -23.846,24.207 4.222,-13.361 8.676,-27.377 8.555,-41.514 -0.293,-34.029 -29.529,-82.669 -50.314,-108.925 -6.365,-8.04 -13.316,-15.355 -20.633,-22.53 -12.779,-12.53 -27.808,-22.54 -40.515,-34.984 18.081,1.55 36.232,3.903 54.191,6.507 9.513,1.379 18.928,3.197 28.495,4.224 32.388,3.475 71.355,3.106 97.819,-18.437 11.651,-9.484 18.34,-22.597 19.904,-37.403 z" style="fill:#6ce1d7;fill-rule:nonzero" id="path72"></path>
                <path d="m 756.613,426.596 c 9.191,2.261 18.156,6.084 27.249,8.825 18.538,5.588 36.664,9.327 56.133,8.007 6.746,-0.457 13.467,-1.688 20.165,-2.137 l 0.855,-0.051 c -14.23,7.009 -26.119,10.899 -42.11,10.861 15.95,11.466 35.302,16.381 52.554,25.588 10.319,5.506 21.07,11.27 30.246,18.57 16.042,12.76 30.259,33.097 38.595,51.824 3.372,7.576 5.87,15.552 8.274,23.479 -1.968,-3.19 -3.752,-6.505 -5.587,-9.773 -25.811,-45.363 -55.714,-62.736 -102,-82.976 6.89,15.865 11.69,29.826 11.488,47.417 -12.671,-39.876 -43.768,-63.646 -76.478,-86.672 -6.195,-4.36 -12.976,-8.048 -18.979,-12.647 z" style="fill:#e5e5e5;fill-rule:nonzero" id="path73"></path>
            </g>
        </g>
        <g transform="matrix(3.87244,0,0,1.87756,-230.413,-126.245)" id="g74">
            <g id="Layer2">
                <path d="M 229.612,134.774 H 120.765 v 223.95 h 108.847 z m -3.676,7.583 v 208.784 c 0,0 -101.494,0 -101.494,0 0,0 0,-170.47 0,-208.784 0,0 101.494,0 101.494,0 z" style="fill:url(#_Linear1)" id="path74"></path>
            </g>
        </g>
    </g>
    
    <defs id="defs79"><linearGradient id="_Linear1" x1="0" y1="0" x2="1" y2="0" gradientUnits="userSpaceOnUse" gradientTransform="matrix(108.847,0,0,223.95,120.765,246.749)"><stop offset="0" style="stop-color:rgb(69,157,164);stop-opacity:1" id="stop76"></stop><stop offset="1" style="stop-color:rgb(57,54,125);stop-opacity:1" id="stop77"></stop></linearGradient></defs>
</svg>